<mxfile host="app.diagrams.net" modified="2024-04-11T12:10:00.693Z" agent="Mozilla/5.0 (Windows NT 10.0; Win64; x64; rv:124.0) Gecko/20100101 Firefox/124.0" version="24.2.3" etag="uTGpeEgWxRYszYau6S9b" type="github">
  <diagram name="第 1 页" id="MldsmIcEldjyIL3Y0G9D">
    <mxGraphModel>
      <root>
        <mxCell id="0" />
        <mxCell id="1" parent="0" />
      </root>
    </mxGraphModel>
  </diagram>
</mxfile>
